<?xml version="1.0" encoding="UTF-8" standalone="no"?><!DOCTYPE svg PUBLIC "-//W3C//DTD SVG 1.1//EN" "http://www.w3.org/Graphics/SVG/1.1/DTD/svg11.dtd"><svg width="100%" height="100%" viewBox="0 0 200 200" version="1.1" xmlns="http://www.w3.org/2000/svg" xmlns:xlink="http://www.w3.org/1999/xlink" xml:space="preserve" xmlns:serif="http://www.serif.com/" style="fill-rule:evenodd;clip-rule:evenodd;"><clipPath id="_clip1"><rect x="27.564" y="0" width="144.872" height="200"/></clipPath><g clip-path="url(#_clip1)"><g id="ink_ext_XXXXXX"><g id="g3393"><path id="path22" d="M169.966,96.423c0,39.606 -31.39,71.714 -70.112,71.714c-38.721,0 -70.111,-32.108 -70.111,-71.714c-0,-39.607 31.39,-71.715 70.111,-71.715c38.722,-0 70.112,32.108 70.112,71.715" style="fill:#d33833;"/><path id="path24" d="M32.6,114.184c-0,0 -5.076,-74.786 63.835,-76.923l-4.808,-8.013l-37.393,12.554l-10.684,12.286l-9.348,17.896l-5.342,20.833l1.602,13.889" style="fill:#ef3d3a;fill-rule:nonzero;"/><path id="path26" d="M51.834,47.501c-12.302,12.586 -19.914,29.965 -19.914,49.19c0,19.221 7.612,36.601 19.914,49.186c12.307,12.584 29.268,20.349 48.019,20.349c18.752,-0 35.714,-7.765 48.02,-20.349c12.301,-12.585 19.915,-29.965 19.915,-49.186c-0,-19.225 -7.614,-36.604 -19.915,-49.19c-12.306,-12.582 -29.268,-20.347 -48.02,-20.349c-18.751,0.002 -35.712,7.767 -48.019,20.349Zm-3.114,101.42c-13.074,-13.37 -21.156,-31.848 -21.156,-52.23c0,-20.386 8.082,-38.862 21.156,-52.233c13.07,-13.373 31.163,-21.662 51.133,-21.66c19.971,-0.002 38.065,8.287 51.133,21.66c13.075,13.371 21.158,31.849 21.157,52.233c0.001,20.382 -8.082,38.86 -21.157,52.23c-13.068,13.372 -31.162,21.661 -51.133,21.661c-19.97,-0 -38.063,-8.289 -51.133,-21.661" style="fill:#231f20;fill-rule:nonzero;"/><path id="path28" d="M129.368,96.821l-10.685,1.602l-14.423,1.603l-9.348,0.266l-9.081,-0.266l-6.945,-2.137l-6.143,-6.677l-4.808,-13.622l-1.068,-2.939l-6.411,-2.136l-3.739,-6.143l-2.671,-8.814l2.939,-7.746l6.944,-2.404l5.608,2.671l2.672,5.876l3.205,-0.534l1.068,-1.335l-1.068,-6.144l-0.268,-7.746l1.603,-10.683l-0.063,-6.103l4.871,-7.786l8.547,-6.143l14.958,-6.41l16.559,2.403l14.423,10.417l6.678,10.684l4.273,7.746l1.068,19.23l-3.205,16.56l-5.876,14.69l-5.609,7.746" style="fill:#f0d6b7;"/><path id="path30" d="M120.286,143.027l-38.195,1.603l0,6.41l3.205,22.436l-1.602,1.87l-26.709,-9.082l-1.871,-3.205l-2.67,-30.181l-6.143,-18.162l-1.336,-4.274l21.367,-14.69l6.678,-2.671l5.876,7.211l5.075,4.541l5.876,1.87l2.671,0.801l3.205,13.889l2.404,2.938l6.143,-2.137l-4.274,8.28l23.238,10.951l-2.938,1.602" style="fill:#335061;"/><path id="path32" d="M56.985,49.812l6.944,-2.404l5.608,2.671l2.672,5.876l3.205,-0.534l0.801,-3.205l-1.602,-6.143l1.602,-14.691l-1.336,-8.013l4.808,-5.609l10.417,-8.279l-2.938,-4.007l-14.69,7.212l-6.144,4.808l-3.472,7.478l-5.342,7.211l-1.602,8.548l1.069,9.081" style="fill:#6d6b6d;"/><path id="path34" d="M67.935,24.705c-0,0 4.006,-9.882 20.032,-14.69c16.026,-4.807 0.801,-3.473 0.801,-3.473l-17.36,6.678l-6.678,6.677l-2.938,5.343l6.143,-0.535" style="fill:#dcd9d8;"/><path id="path36" d="M59.922,47.942c0,0 -5.609,-18.697 15.759,-21.367l-0.802,-3.206l-14.689,3.473l-4.274,13.889l1.069,9.081l2.937,-1.87" style="fill:#dcd9d8;"/><path id="path38" d="M68.469,72.782l3.497,-3.389c0,0 1.579,0.184 1.846,2.053c0.266,1.871 1.067,18.697 12.552,27.779c1.048,0.829 -8.546,-1.336 -8.546,-1.336l-8.547,-13.355" style="fill:#f7e4cd;"/><path id="path40" d="M117.616,67.708c0,-0 0.623,-8.097 2.803,-7.474c2.18,0.623 2.18,2.803 2.18,2.803c0,-0 -5.295,3.425 -4.983,4.671" style="fill:#f7e4cd;"/><path id="path42" d="M139.784,38.06c-0,0 -4.403,0.93 -4.808,4.808c-0.405,3.879 4.808,0.801 5.609,0.534" style="fill:#f7e4cd;fill-rule:nonzero;"/><path id="path44" d="M107.465,38.328c0,-0 -5.876,0.801 -5.876,4.54c-0,3.739 6.678,3.473 8.547,1.87" style="fill:#f7e4cd;fill-rule:nonzero;"/><path id="path46" d="M71.14,55.688c0,0 -10.15,-6.143 -11.218,-0.267c-1.068,5.876 -3.473,10.15 1.603,16.293l-3.472,-1.068l-3.206,-8.28l-1.068,-8.013l6.143,-6.411l6.945,0.535l4.006,3.205l0.267,4.006" style="fill:#f7e4cd;"/><path id="path48" d="M75.948,38.861c-0,0 4.54,-23.504 27.511,-28.044c18.911,-3.738 28.845,0.801 32.585,5.074c0,0 -16.827,-20.031 -32.853,-13.889c-16.025,6.144 -27.777,17.362 -27.51,24.573c0.455,12.282 0.267,12.286 0.267,12.286" style="fill:#f7e4cd;"/><path id="path50" d="M137.914,18.562c0,-0 -7.745,-0.267 -8.013,6.678c0,-0 -0,1.068 0.534,2.136c0,-0 6.144,-6.945 9.883,-3.205" style="fill:#f7e4cd;"/><path id="path52" d="M103.997,28.099c0,0 -1.333,-10.659 -10.421,-4.462c-5.876,4.006 -5.341,9.615 -4.273,10.684c1.068,1.068 0.777,3.22 1.591,1.743c0.812,-1.477 0.545,-6.284 3.483,-7.619c2.938,-1.336 7.755,-2.828 9.62,-0.346" style="fill:#f7e4cd;"/><path id="path54" d="M78.886,100.292l-25.107,11.218c0,0 10.417,41.4 5.075,54.221l-3.74,-1.335l-0.267,-15.759l-6.943,-29.914l-2.939,-8.281l26.175,-17.627l7.746,7.477" style="fill:#49728b;"/><path id="path56" d="M81.468,123.191l3.561,4.346l0,16.025l-4.274,0c0,0 -0.533,-11.217 -0.533,-12.553c-0,-1.336 0.533,-6.144 0.533,-6.144" style="fill:#49728b;"/><path id="path58" d="M81.557,145.966l-12.02,0.534l3.473,2.404l8.547,1.335" style="fill:#49728b;"/><path id="path60" d="M122.69,143.295l9.882,-0.267l2.404,24.573l-10.15,1.335l-2.136,-25.641" style="fill:#335061;"/><path id="path62" d="M125.361,143.295l14.957,-0.801c0,-0 6.143,-15.492 6.143,-16.293c-0,-0.801 5.342,-22.436 5.342,-22.436l-12.019,-12.553l-2.404,-2.137l-6.41,6.411l-0,24.839l-5.609,22.97" style="fill:#335061;"/><path id="path64" d="M132.038,141.425l-9.348,1.87l1.335,7.479c3.472,1.603 9.348,-2.671 9.348,-2.671" style="fill:#49728b;"/><path id="path66" d="M132.305,94.684l18.697,13.889l0.534,-6.41l-14.156,-13.088l-5.075,5.609" style="fill:#49728b;"/><path id="path68" d="M90.826,195.915l-5.53,-22.439l-2.75,-16.557l-0.455,-12.289l25.028,-1.333l15.571,-0.002l-1.416,28.047l2.404,21.635l-0.267,4.006l-20.299,1.603l-12.286,-2.671" style="fill:#fff;"/><path id="path70" d="M119.217,143.028c0,-0 -1.335,27.778 2.672,47.543c-0,-0 -8.013,5.075 -19.766,6.41l22.436,-0.801l2.671,-1.603l-3.205,-43.803l-0.801,-9.349" style="fill:#dcd9d8;"/><path id="path72" d="M135.431,165.466l10.417,-2.938l19.764,-1.068l2.938,-9.081l-5.342,-15.759l-6.142,-0.801l-8.548,2.671l-8.2,4.004l-4.353,-0.799l-3.393,1.333" style="fill:#fff;"/><path id="path74" d="M135.243,160.122c-0,-0 6.944,-3.205 8.013,-2.938l-2.938,-14.69l3.472,-1.335c0,-0 2.404,13.888 2.404,15.491c-0,-0 14.957,0.801 16.292,0.801c0,-0 3.206,-6.143 2.404,-12.554l2.939,8.548l0.266,4.807l-4.273,6.41l-4.808,1.069l-8.012,-0.267l-2.671,-3.472l-9.349,1.335l-2.938,1.069" style="fill:#dcd9d8;"/><path id="path76" d="M124.747,141.161l-5.876,-14.957l-6.143,-8.815c-0,0 1.335,-3.739 3.205,-3.739l6.143,-0l5.876,2.137l-0.534,9.882l-2.671,15.492" style="fill:#fff;fill-rule:nonzero;"/><path id="path78" d="M125.895,136.083c0,0 -7.479,-14.422 -7.479,-16.559c-0,0 1.335,-3.205 3.205,-2.404c1.87,0.801 5.877,2.938 5.877,2.938l-0,-5.075l-9.082,-1.87l-6.143,0.801l10.417,24.573l2.136,0.268" style="fill:#dcd9d8;"/><path id="path80" d="M93.23,100.83l-7.399,-0.804l-6.945,-2.137l-0,2.403l3.393,3.742l10.684,4.808" style="fill:#fff;fill-rule:nonzero;"/><path id="path82" d="M81.291,101.631c-0,-0 8.28,3.472 10.951,2.671l0.266,3.202l-7.478,-1.599l-4.541,-3.205l0.802,-1.069" style="fill:#dcd9d8;"/><path id="path84" d="M135.402,114.559c-4.532,-0.133 -8.626,-0.671 -12.211,-1.682c0.243,-1.47 -0.213,-2.912 0.154,-3.971c0.999,-0.719 2.673,-0.708 4.184,-0.877c-1.306,-0.642 -3.141,-0.896 -4.648,-0.525c-0.036,-1.02 -0.493,-1.652 -0.77,-2.45c2.548,-0.91 8.563,-6.872 11.947,-4.898c1.612,0.939 2.297,6.303 2.422,8.911c0.104,2.164 -0.196,4.346 -1.078,5.492" style="fill:#d33833;"/><path id="path86" d="M135.402,114.559c-4.532,-0.133 -8.626,-0.671 -12.211,-1.682c0.243,-1.47 -0.213,-2.912 0.154,-3.971c0.999,-0.719 2.673,-0.708 4.184,-0.877c-1.306,-0.642 -3.141,-0.896 -4.648,-0.525c-0.036,-1.02 -0.493,-1.652 -0.77,-2.45c2.548,-0.91 8.563,-6.872 11.947,-4.898c1.612,0.939 2.297,6.303 2.422,8.911c0.104,2.164 -0.196,4.346 -1.078,5.492Z" style="fill:none;fill-rule:nonzero;stroke:#d33833;stroke-width:1.6px;"/><path id="path88" d="M113.73,107.151c-0.012,0.343 -0.026,0.688 -0.04,1.034c-1.415,0.93 -3.7,0.918 -5.252,1.7c2.289,0.1 4.091,0.651 5.65,1.428c-0.034,0.864 -0.067,1.727 -0.101,2.591c-2.594,1.775 -4.963,4.42 -8.017,6.085c-1.444,0.787 -6.511,2.814 -8.047,2.456c-0.87,-0.202 -0.948,-1.281 -1.295,-2.297c-0.741,-2.178 -2.445,-5.643 -2.593,-8.92c-0.19,-4.14 -0.608,-11.077 3.853,-10.225c3.599,0.687 7.785,2.345 10.571,3.867c1.703,0.931 2.688,2.082 5.271,2.281" style="fill:#d33833;"/><path id="path90" d="M113.73,107.151c-0.012,0.343 -0.026,0.688 -0.04,1.034c-1.415,0.93 -3.7,0.918 -5.252,1.7c2.289,0.1 4.091,0.651 5.65,1.428c-0.034,0.864 -0.067,1.727 -0.101,2.591c-2.594,1.775 -4.963,4.42 -8.017,6.085c-1.444,0.787 -6.511,2.814 -8.047,2.456c-0.87,-0.202 -0.948,-1.281 -1.295,-2.297c-0.741,-2.178 -2.445,-5.643 -2.593,-8.92c-0.19,-4.14 -0.608,-11.077 3.853,-10.225c3.599,0.687 7.785,2.345 10.571,3.867c1.703,0.931 2.688,2.082 5.271,2.281Z" style="fill:none;fill-rule:nonzero;stroke:#d33833;stroke-width:1.6px;"/><path id="path92" d="M116.306,112.09c-0.396,-2.255 -0.853,-2.898 -0.676,-4.866c6.013,-4.009 7.142,6.887 0.676,4.866" style="fill:#d33833;"/><path id="path94" d="M116.306,112.09c-0.396,-2.255 -0.853,-2.898 -0.676,-4.866c6.013,-4.009 7.142,6.887 0.676,4.866Z" style="fill:none;fill-rule:nonzero;stroke:#d33833;stroke-width:1.6px;"/><path id="path96" d="M125.014,113.917c-0,0 -1.871,-2.671 -0.535,-3.472c1.336,-0.802 2.672,0.001 3.473,-1.335c0.801,-1.336 -0,-2.137 0.267,-3.74c0.267,-1.602 1.603,-1.87 2.938,-2.137c1.335,-0.267 5.075,-0.801 5.609,0.535l-1.603,-4.808l-3.205,-1.068l-10.15,5.876l-0.534,2.938l0,5.876" style="fill:#ef3d3a;"/><path id="path98" d="M96.969,122.732c-0.321,-4.169 -0.661,-8.331 -1.038,-12.496c-0.566,-6.218 1.493,-5.133 6.883,-5.133c0.823,0 5.069,0.982 5.373,1.603c1.456,2.975 -2.436,2.314 1.678,4.558c3.472,1.893 9.607,-1.15 8.204,-5.359c-0.785,-0.936 -4.091,-0.292 -5.277,-0.907c-2.086,-1.081 -4.173,-2.163 -6.259,-3.245c-2.655,-1.377 -8.791,-3.385 -11.621,-1.461c-7.172,4.878 0.452,17.065 3.011,22.153" style="fill:#ef3d3a;"/><path id="path100" d="M103.997,28.099c-7.279,-1.695 -10.897,3.047 -13.103,7.965c-1.971,-0.477 -1.187,-3.157 -0.689,-4.522c1.303,-3.584 6.554,-8.354 10.845,-7.707c1.846,0.278 4.345,1.966 2.947,4.264" style="fill:#231f20;"/><path id="path102" d="M139.467,36.389c0.115,0.005 0.231,0.009 0.345,0.014c1.646,3.418 3.069,7.038 5.145,10.055c-1.39,3.238 -10.528,6.103 -10.386,0.289c1.975,-0.864 5.387,-0.176 7.138,-1.28c-1.013,-2.78 -2.474,-5.146 -2.242,-9.078" style="fill:#231f20;"/><path id="path104" d="M107.724,36.478c1.561,2.862 2.069,5.868 4.288,8.031c0.999,0.973 2.942,2.16 1.979,4.868c-0.225,0.638 -1.87,2.062 -2.82,2.342c-3.468,1.024 -11.551,0.211 -8.814,-4.113c2.869,0.134 6.725,1.863 8.869,-0.22c-1.647,-2.632 -4.582,-7.84 -3.502,-10.908" style="fill:#231f20;"/><path id="path106" d="M138.165,65.56c-5.223,3.355 -11.046,7.003 -19.604,6.157c-1.829,-1.59 -2.526,-5.127 -0.749,-7.464c0.924,1.59 0.343,4.514 2.92,4.954c4.856,0.831 10.508,-2.971 14,-4.299c2.166,-3.652 -0.186,-4.995 -2.137,-7.345c-3.995,-4.815 -9.353,-10.783 -9.158,-17.991c1.614,-1.171 1.754,1.787 1.985,2.325c2.086,4.882 7.335,11.125 11.166,15.303c0.941,1.028 2.49,2.016 2.662,2.696c0.497,1.978 -1.292,4.348 -1.085,5.664" style="fill:#231f20;"/><path id="path108" d="M69.312,62.028c-1.637,-0.934 -2.027,-5.05 -3.948,-5.167c-2.747,-0.166 -2.246,5.339 -2.235,8.559c-1.891,-1.716 -2.223,-7.001 -0.834,-9.715c-1.583,-0.777 -2.29,0.857 -3.168,1.434c1.128,-8.197 11.991,-3.802 10.185,4.889" style="fill:#231f20;"/><path id="path110" d="M141.49,68.974c-2.431,4.627 -5.87,9.723 -13.004,9.871c-0.145,-1.494 -0.256,-3.768 0.008,-4.668c5.454,-0.524 8.821,-3.3 12.996,-5.203" style="fill:#231f20;"/><path id="path112" d="M107.313,71.974c4.55,2.392 12.912,2.649 19.096,2.468c0.332,1.355 0.324,3.029 0.337,4.681c-7.95,0.397 -17.349,-1.57 -19.433,-7.149" style="fill:#231f20;"/><path id="path114" d="M106.448,76.435c3.147,7.9 13.961,6.99 23.08,6.773c-0.401,1.025 -1.272,2.237 -2.353,2.675c-2.923,1.189 -10.983,2.091 -15.04,-0.063c-2.573,-1.368 -4.226,-4.459 -5.635,-6.27c-0.681,-0.875 -4.071,-3.11 -0.052,-3.115" style="fill:#231f20;"/><path id="path116" d="M137.785,120.011c-3.692,6.324 -7.225,12.819 -11.606,18.397c1.837,-5.4 2.623,-14.438 2.9,-21.328c3.842,-1.798 7.133,0.405 8.706,2.931" style="fill:#81b0c4;"/><path id="path118" d="M157.654,142.74c-4.134,0.827 -7.039,4.845 -11.071,4.587c2.216,-3.124 6.1,-4.442 11.071,-4.587" style="fill:#231f20;"/><path id="path120" d="M159.478,149.209c-3.37,0.356 -7.327,0.901 -10.745,0.62c1.618,-2.471 7.851,-1.618 10.745,-0.62" style="fill:#231f20;"/><path id="path122" d="M160.645,154.787c-3.787,0.082 -8.494,0.006 -12.093,-0.296c2.129,-2.287 9.637,-0.848 12.093,0.296" style="fill:#231f20;"/><path id="path124" d="M130.66,170.05c0.544,4.756 2.429,9.575 2.193,14.783c-2.094,0.706 -3.297,1.324 -6.102,1.32c-0.198,-4.426 -0.79,-11.193 -0.613,-15.413c1.38,0.092 3.414,-0.985 4.522,-0.69" style="fill:#dcd9d8;"/><path id="path126" d="M124.555,99.961c-1.901,1.241 -3.521,2.791 -5.347,4.116c-4.049,0.2 -6.259,-0.281 -9.234,-2.606c0.048,-0.187 0.347,-0.103 0.359,-0.332c4.334,1.932 9.845,-0.787 14.222,-1.178" style="fill:#f0d6b7;"/><path id="path128" d="M101.798,129.51c1.192,-5.161 5.858,-7.834 10.096,-10.676c4.374,5.552 7.035,12.691 9.964,19.58c-6.921,-2.086 -13.993,-5.472 -20.06,-8.904" style="fill:#81b0c4;"/><path id="path130" d="M126.138,170.74c-0.177,4.22 0.415,10.987 0.613,15.413c2.805,0.004 4.008,-0.614 6.102,-1.32c0.236,-5.208 -1.649,-10.027 -2.193,-14.783c-1.108,-0.295 -3.142,0.782 -4.522,0.69Zm-43.681,-23.997c1.849,17.006 4.529,31.301 9.443,46.36c10.906,3.311 24.054,3.6 33.695,0.612c-1.77,-8.5 -0.997,-18.847 -2.032,-27.917c-0.779,-6.817 -0.382,-13.676 -1.451,-20.631c-11.681,-2.43 -28.192,-0.568 -39.655,1.576Zm42.417,-1.47c-0.098,7.304 0.327,14.508 0.885,21.821c2.804,-0.421 4.707,-0.702 7.313,-1.273c-0.846,-7.04 -0.742,-14.962 -2.465,-21.19c-1.992,0.019 -3.746,-0.023 -5.733,0.642Zm14.227,-1.177c-1.331,-0.305 -2.881,-0.012 -4.152,0.013c0.597,5.954 2.048,12.523 2.558,18.773c2.001,0.062 3.07,-0.882 4.716,-1.199c0.088,-5.486 -0.479,-13.044 -3.122,-17.587Zm21.542,19.682c4.17,-1.013 6.793,-6.121 5.626,-11.367c-0.783,-3.526 -2.177,-10.164 -3.669,-12.42c-1.102,-1.668 -4.092,-3.852 -6.479,-2.324c-3.883,2.487 -10.724,3.209 -13.555,6.218c1.42,4.728 1.86,11.222 2.446,17.212c4.851,0.302 10.82,-1.335 14.854,0.402c-2.816,0.913 -6.471,0.92 -8.904,2.25c1.988,0.96 6.645,0.766 9.681,0.029Zm-38.785,-25.364c-2.929,-6.889 -5.59,-14.028 -9.964,-19.58c-4.238,2.842 -8.904,5.515 -10.096,10.676c6.067,3.432 13.139,6.818 20.06,8.904Zm7.221,-21.334c-0.277,6.89 -1.063,15.928 -2.9,21.328c4.381,-5.578 7.914,-12.073 11.606,-18.397c-1.573,-2.526 -4.864,-4.729 -8.706,-2.931Zm-8.186,-2.909c-1.659,-0.178 -3.068,1.908 -5.226,1.006c-0.494,0.547 -0.943,1.139 -1.447,1.672c4.766,5.744 6.931,13.893 10.613,20.643c1.975,-6.484 1.747,-13.588 2.182,-20.664c-2.714,0.172 -4.219,-2.455 -6.122,-2.657Zm-5.263,-6.947c-0.177,1.968 0.28,2.611 0.676,4.866c6.466,2.021 5.337,-8.875 -0.676,-4.866Zm-7.171,-2.354c-2.786,-1.522 -6.972,-3.18 -10.571,-3.867c-4.461,-0.853 -4.043,6.085 -3.853,10.225c0.148,3.277 1.853,6.742 2.593,8.92c0.347,1.016 0.425,2.095 1.295,2.297c1.536,0.358 6.603,-1.669 8.047,-2.456c3.054,-1.665 5.423,-4.31 8.017,-6.085c0.034,-0.864 0.067,-1.727 0.101,-2.591c-1.559,-0.777 -3.361,-1.328 -5.65,-1.428c1.552,-0.782 3.837,-0.77 5.252,-1.7c0.014,-0.346 0.028,-0.691 0.04,-1.034c-2.583,-0.199 -3.568,-1.35 -5.271,-2.281Zm-26.613,-4.834c-2.313,2.348 6.486,5.548 9.287,5.72c-0.016,-1.485 0.847,-2.886 0.673,-3.952c-3.327,-0.584 -7.7,-0.198 -9.96,-1.768Zm28.487,1.103c-0.012,0.229 -0.311,0.145 -0.359,0.332c2.975,2.325 5.185,2.806 9.234,2.606c1.826,-1.325 3.446,-2.875 5.347,-4.116c-4.377,0.391 -9.888,3.11 -14.222,1.178Zm26.147,7.928c-0.125,-2.608 -0.81,-7.972 -2.422,-8.911c-3.384,-1.975 -9.399,3.988 -11.947,4.898c0.277,0.798 0.734,1.43 0.77,2.45c1.507,-0.371 3.342,-0.117 4.648,0.525c-1.511,0.169 -3.185,0.158 -4.184,0.877c-0.367,1.059 0.089,2.501 -0.154,3.971c3.585,1.011 7.679,1.549 12.211,1.682c0.882,-1.146 1.182,-3.328 1.078,-5.492Zm-58.527,-6.76c-0.727,-0.518 -5.639,-6.91 -6.312,-6.644c-8.889,3.505 -17.201,9.567 -24.629,15.3c7.082,15.196 9.941,33.813 10.446,51.756c8.112,3.795 15.238,9.264 26.246,9.835c-1.274,-9.012 -2.437,-17.053 -3.16,-25.539c-2.766,-1.166 -6.734,0.053 -9.323,-0.361c-0.021,-3.12 3.954,-1.366 4.285,-3.464c0.249,-1.587 -2.187,-1.707 -1.394,-4.205c2.024,0.735 3.086,2.36 5.244,2.97c1.972,-4.314 -0.027,-11.947 0.257,-15.553c0.054,-0.677 0.338,-3.75 1.855,-3.211c1.342,0.477 -0.077,8.174 0.07,11.587c0.134,3.144 -0.38,6.187 0.894,8.16c10.637,-1.448 21.446,-2.383 32.956,-2.699c-2.532,-1.087 -5.54,-2.115 -8.838,-3.974c-1.788,-1.008 -7.424,-3.105 -7.939,-4.803c-0.824,-2.706 2.159,-4.147 2.669,-6.467c-5.369,2.929 -6.417,-2.807 -7.687,-6.87c-1.151,-3.68 -1.806,-6.429 -2.088,-8.552c-4.626,-2.205 -9.571,-4.438 -13.552,-7.266Zm53.829,-5.871c7.406,-3.591 8.741,13.422 5.838,18.903c0.449,1.635 1.992,2.26 2.622,3.73c-4.133,7.404 -8.724,14.315 -12.941,21.631c3.137,-1.952 7.618,-0.349 11.31,-1.811c1.349,-0.533 2.326,-3.622 3.347,-6.093c2.81,-6.799 5.761,-15.371 7.073,-21.858c0.297,-1.479 1.104,-4.7 0.923,-6.016c-0.323,-2.355 -3.519,-4.102 -5.145,-5.559c-2.995,-2.691 -4.881,-5.059 -8.005,-7.575c-1.267,1.871 -3.986,3.127 -5.022,4.648Zm-70.767,-65.68c-3.53,3.883 -2.791,11.159 -2.364,16.335c6.379,-4.012 14.846,0.318 14.766,7.143c3.046,-0.081 1.138,-3.804 0.587,-6.202c-1.8,-7.833 3.033,-16.344 0.219,-23.507c-5.463,0.414 -9.952,2.646 -13.208,6.231Zm25.251,-22.536c-7.989,2.264 -18.229,8.069 -21.512,15.246c2.542,-0.369 4.307,-1.651 6.815,-1.81c0.948,-0.061 2.189,0.398 3.279,0.127c2.17,-0.539 4.002,-5.406 5.64,-7.216c1.596,-1.769 3.515,-2.525 4.828,-4.137c0.843,-0.407 2.091,-0.379 2.139,-1.646c-0.366,-0.391 -0.751,-0.689 -1.189,-0.564Zm41.589,2.129c-8.293,-4.678 -22.329,-8.198 -31.15,-3.8c-7.117,3.549 -16.738,9.421 -20.019,16.861c3.065,7.181 -0.907,13.76 -1.161,21.05c-0.134,3.879 1.827,7.265 1.977,11.488c-1.049,1.73 -4.252,1.943 -6.47,1.824c-0.746,-3.735 -2.053,-7.934 -5.9,-8.355c-5.443,-0.596 -9.423,3.909 -9.67,8.617c-0.293,5.536 4.252,14.711 10.694,14.074c2.488,-0.246 3.099,-2.74 5.81,-2.715c1.47,2.932 -2.266,3.853 -2.651,5.95c-0.1,0.542 0.31,2.659 0.549,3.651c1.17,4.835 3.778,11.091 6.345,14.771c3.258,4.668 9.66,5.372 16.547,5.83c1.23,-2.65 5.761,-2.432 8.714,-1.739c-3.539,-1.402 -6.828,-4.799 -9.555,-7.806c-3.131,-3.451 -6.303,-7.152 -6.464,-11.661c5.918,8.21 10.807,15.379 21.568,18.991c8.143,2.731 17.652,-1.252 23.909,-5.645c2.596,-1.826 4.146,-4.724 5.991,-7.376c6.905,-9.932 10.127,-24.108 9.418,-37.849c-0.291,-5.666 -0.279,-11.314 -2.18,-15.126c-1.987,-3.987 -8.708,-7.553 -12.643,-3.947c-0.729,-3.877 3.272,-6.274 7.972,-4.879c-3.351,-4.325 -6.868,-9.521 -11.631,-12.209Zm15.449,127.859c6.48,-3.222 18.588,-8.671 22.65,0.012c1.5,3.2 3.258,8.61 4.035,11.914c1.097,4.661 -1.189,14.458 -5.98,16.022c-4.232,1.381 -9.169,1.297 -14.266,0.273c-0.6,-0.499 -1.269,-1.37 -1.736,-2.277c-3.639,-0.141 -7.047,0.196 -9.922,1.692c0.272,2.691 -1.548,3.123 -3.255,3.678c-1.265,5.016 2.531,11.568 1.623,16.142c-0.649,3.259 -4.658,3.763 -7.605,4.373c-0.096,1.811 0.129,3.323 0.33,4.855c-0.674,2.483 -3.696,3.896 -6.56,4.243c-9.422,1.133 -23.729,1.642 -32.792,-1.617c-2.529,-6.204 -4.521,-13.749 -6.628,-20.832c-8.839,0.944 -15.988,-3.814 -22.727,-6.931c-2.334,-1.082 -5.562,-1.678 -6.433,-3.535c-0.845,-1.799 -0.5,-5.245 -0.709,-8.5c-0.534,-8.315 -0.991,-16.335 -3.187,-24.849c-0.986,-3.82 -2.704,-7.192 -3.903,-10.873c-1.108,-3.411 -3.044,-7.628 -3.549,-11.03c-0.748,-5.043 4,-5.323 7.036,-7.508c4.694,-3.379 8.378,-5.248 13.461,-8.297c1.505,-0.903 6.045,-3.189 6.562,-4.242c1.026,-2.088 -1.762,-5.031 -2.508,-6.667c-1.179,-2.587 -1.794,-4.785 -1.963,-7.338c-4.264,-0.674 -7.497,-3.212 -9.449,-6.073c-3.23,-4.736 -5.47,-13.497 -2.676,-20.161c0.22,-0.525 1.313,-1.557 1.474,-2.363c0.318,-1.587 -0.599,-3.698 -0.656,-5.386c-0.293,-8.662 1.466,-16.125 7.297,-18.737c2.367,-9.431 10.84,-12.566 18.822,-17.253c2.984,-1.751 6.273,-2.871 9.67,-4.121c12.187,-4.485 30.883,-3.64 40.997,4.009c4.289,3.244 11.144,10.092 13.596,15.05c6.476,13.091 6.016,34.968 1.486,50.892c-0.609,2.138 -1.492,5.281 -2.725,7.849c-0.86,1.793 -3.532,5.381 -3.208,6.965c0.334,1.637 6.093,6.009 7.328,7.2c2.224,2.145 6.448,4.992 6.79,7.699c0.368,2.88 -1.269,6.821 -2.099,9.601c-2.772,9.276 -5.477,17.851 -8.621,26.121" style="fill:#231f20;"/><path id="path132" d="M100.073,73.994c0.351,-0.468 2.284,-1.178 4.989,0.124c-0,-0 -3.206,0.534 -2.939,5.878l-1.336,-0.268c0,0 -1.38,-4.845 -0.714,-5.734" style="fill:#f7e4cd;"/><path id="path134" d="M123.491,119.925c0,0.811 -0.658,1.468 -1.469,1.468c-0.811,0 -1.469,-0.657 -1.469,-1.468c-0,-0.811 0.658,-1.47 1.469,-1.47c0.811,0 1.469,0.659 1.469,1.47" style="fill:#1d1919;"/><path id="path136" d="M124.96,126.736c-0,0.811 -0.658,1.468 -1.47,1.468c-0.811,0 -1.468,-0.657 -1.468,-1.468c-0,-0.811 0.657,-1.47 1.468,-1.47c0.812,0 1.47,0.659 1.47,1.47" style="fill:#1d1919;"/></g></g></g></svg>