<?xml version="1.0" encoding="UTF-8" standalone="no"?>
<!DOCTYPE svg PUBLIC "-//W3C//DTD SVG 1.1//EN" "http://www.w3.org/Graphics/SVG/1.1/DTD/svg11.dtd">
<svg width="100%" height="100%" viewBox="0 0 96 96" version="1.1" xmlns="http://www.w3.org/2000/svg" xmlns:xlink="http://www.w3.org/1999/xlink" xml:space="preserve" xmlns:serif="http://www.serif.com/" style="fill-rule:evenodd;clip-rule:evenodd;stroke-linejoin:round;stroke-miterlimit:2;">
    <g transform="matrix(0.619355,0,0,0.619355,-92.4047,-69.677419)">
        <path d="M301.959,174.372L301.746,173.814L280.547,118.505C280.123,117.422 279.361,116.509 278.37,115.878C277.381,115.245 276.222,114.946 275.047,115.008C273.878,115.07 272.755,115.497 271.839,116.226C270.929,116.962 270.272,117.957 269.964,119.08L255.651,162.886L197.741,162.886L183.428,119.08C183.119,117.957 182.462,116.962 181.553,116.226C180.637,115.497 179.514,115.07 178.345,115.008C177.169,114.946 176.01,115.245 175.022,115.878C174.03,116.509 173.268,117.422 172.845,118.505L151.646,173.817L151.432,174.372C145.151,190.758 150.503,209.28 164.491,219.86C164.517,219.877 164.54,219.896 164.567,219.916L164.754,220.057L197.045,244.231L213.016,256.321L222.736,263.67C225.077,265.443 228.315,265.443 230.656,263.67L240.375,256.321L256.343,244.231L288.825,219.916C288.854,219.893 288.881,219.873 288.91,219.85C302.889,209.271 308.238,190.754 301.959,174.372L301.959,174.372Z" style="fill:rgb(226,67,41);fill-rule:nonzero;"/>
        <path d="M301.959,174.372L301.746,173.814C291.228,175.975 281.542,180.424 273.247,186.63C273.113,186.729 248.042,205.688 226.696,221.827C242.546,233.812 256.343,244.231 256.343,244.231L288.825,219.916C288.854,219.893 288.881,219.873 288.91,219.85C302.889,209.271 308.238,190.754 301.959,174.372Z" style="fill:rgb(252,109,38);fill-rule:nonzero;"/>
        <path d="M197.045,244.231L213.016,256.321L222.736,263.67C225.077,265.443 228.314,265.443 230.656,263.67L240.375,256.321L256.343,244.231C256.343,244.231 242.546,233.812 226.696,221.827C210.842,233.812 197.045,244.231 197.045,244.231Z" style="fill:rgb(252,163,38);fill-rule:nonzero;"/>
        <path d="M180.141,186.63C171.85,180.427 162.166,175.975 151.646,173.818L151.432,174.372C145.151,190.758 150.503,209.28 164.491,219.86C164.517,219.877 164.54,219.896 164.567,219.916L164.754,220.057L197.045,244.231C197.045,244.231 210.842,233.812 226.696,221.827C205.349,205.688 180.275,186.729 180.141,186.63L180.141,186.63Z" style="fill:rgb(252,109,38);fill-rule:nonzero;"/>
    </g>
</svg>
